<svg xmlns="http://www.w3.org/2000/svg" width="640" height="640" viewBox="0 0 640 640">
<defs>
  <style>
    .dg { fill:none; stroke:rgba(82,183,136,0.065); stroke-width:1.0; stroke-linecap:round; }
    .dg-bold { fill:none; stroke:rgba(82,183,136,0.11); stroke-width:1.5; stroke-linecap:round; }
    .de { fill:none; stroke:rgba(196,146,101,0.05); stroke-width:1.0; stroke-linecap:round; }
    .de-bold { fill:none; stroke:rgba(196,146,101,0.09); stroke-width:1.5; stroke-linecap:round; }
    .dtxt { font-family:'JetBrains Mono',monospace; font-size:8px; fill:rgba(82,183,136,0.22); font-weight:600; letter-spacing:0.5px; }
    .dtxt-e { font-family:'JetBrains Mono',monospace; font-size:8px; fill:rgba(196,146,101,0.22); font-weight:600; letter-spacing:0.5px; }
  </style>
</defs>
<path class="dg" d="M 0.0,42.7 10.0,46.0 20.0,49.0 30.0,51.4 40.0,53.1 50.0,54.2 60.0,54.7 70.0,54.6 80.0,53.9 90.0,53.0 100.0,51.9 110.0,50.8 120.0,49.8 130.0,49.1 140.0,48.8 150.0,49.0 160.0,49.6 170.0,50.5 180.0,51.8 190.0,53.3 200.0,54.8 210.0,56.2 220.0,57.2 230.0,57.8 240.0,57.8 250.0,57.1 260.0,55.7 270.0,53.7 280.0,51.0 290.0,47.9 300.0,44.4 310.0,40.8 320.0,37.3 330.0,34.0 340.0,31.0 350.0,28.6 360.0,26.9 370.0,25.8 380.0,25.3 390.0,25.4 400.0,26.1 410.0,27.0 420.0,28.1 430.0,29.2 440.0,30.2 450.0,30.9 460.0,31.2 470.0,31.0 480.0,30.4 490.0,29.5 500.0,28.2 510.0,26.7 520.0,25.2 530.0,23.8 540.0,22.8 550.0,22.2 560.0,22.2 570.0,22.9 580.0,24.3 590.0,26.3 600.0,29.0 610.0,32.1 620.0,35.6 630.0,39.2 640.0,42.7" />
<path class="dg" d="M 0.0,104.9 10.0,107.2 20.0,109.1 30.0,110.5 40.0,111.3 50.0,111.6 60.0,111.4 70.0,110.8 80.0,109.7 90.0,108.4 100.0,106.7 110.0,104.8 120.0,102.8 130.0,100.8 140.0,98.8 150.0,96.8 160.0,95.0 170.0,93.3 180.0,91.9 190.0,90.7 200.0,89.6 210.0,88.9 220.0,88.3 230.0,87.9 240.0,87.6 250.0,87.4 260.0,87.2 270.0,87.0 280.0,86.7 290.0,86.2 300.0,85.6 310.0,84.8 320.0,83.8 330.0,82.5 340.0,80.9 350.0,79.1 360.0,77.0 370.0,74.8 380.0,72.4 390.0,70.0 400.0,67.5 410.0,65.1 420.0,62.9 430.0,60.8 440.0,59.1 450.0,57.7 460.0,56.8 470.0,56.3 480.0,56.4 490.0,57.0 500.0,58.1 510.0,59.8 520.0,62.0 530.0,64.8 540.0,67.9 550.0,71.4 560.0,75.2 570.0,79.2 580.0,83.3 590.0,87.4 600.0,91.4 610.0,95.2 620.0,98.8 630.0,102.0 640.0,104.9" />
<path class="dg-bold" d="M 0.0,162.2 10.0,161.3 20.0,159.4 30.0,156.9 40.0,154.0 50.0,150.9 60.0,148.0 70.0,145.6 80.0,143.8 90.0,142.7 100.0,142.5 110.0,143.0 120.0,144.1 130.0,145.6 140.0,147.3 150.0,148.9 160.0,150.1 170.0,150.6 180.0,150.3 190.0,148.9 200.0,146.5 210.0,143.0 220.0,138.5 230.0,133.3 240.0,127.5 250.0,121.5 260.0,115.7 270.0,110.3 280.0,105.6 290.0,101.9 300.0,99.3 310.0,97.9 320.0,97.8 330.0,98.7 340.0,100.6 350.0,103.1 360.0,106.0 370.0,109.1 380.0,112.0 390.0,114.4 400.0,116.2 410.0,117.3 420.0,117.5 430.0,117.0 440.0,115.9 450.0,114.4 460.0,112.7 470.0,111.1 480.0,109.9 490.0,109.4 500.0,109.7 510.0,111.1 520.0,113.5 530.0,117.0 540.0,121.5 550.0,126.7 560.0,132.5 570.0,138.5 580.0,144.3 590.0,149.7 600.0,154.4 610.0,158.1 620.0,160.7 630.0,162.1 640.0,162.2" />
<text class="dtxt" x="280.0" y="102.6">1400m</text>
<path class="de" d="M 0.0,199.8 10.0,201.4 20.0,202.5 30.0,203.2 40.0,203.4 50.0,203.0 60.0,202.1 70.0,200.7 80.0,198.8 90.0,196.4 100.0,193.7 110.0,190.6 120.0,187.3 130.0,183.9 140.0,180.3 150.0,176.8 160.0,173.3 170.0,170.0 180.0,167.0 190.0,164.2 200.0,161.8 210.0,159.7 220.0,158.1 230.0,156.8 240.0,156.0 250.0,155.6 260.0,155.6 270.0,155.9 280.0,156.4 290.0,157.2 300.0,158.2 310.0,159.3 320.0,160.4 330.0,161.5 340.0,162.5 350.0,163.5 360.0,164.3 370.0,165.0 380.0,165.5 390.0,165.9 400.0,166.1 410.0,166.2 420.0,166.1 430.0,166.1 440.0,166.0 450.0,165.9 460.0,166.0 470.0,166.2 480.0,166.5 490.0,167.1 500.0,168.0 510.0,169.1 520.0,170.6 530.0,172.3 540.0,174.3 550.0,176.6 560.0,179.1 570.0,181.8 580.0,184.6 590.0,187.4 600.0,190.2 610.0,193.0 620.0,195.5 630.0,197.8 640.0,199.8" />
<path class="dg" d="M 0.0,257.3 10.0,255.5 20.0,252.4 30.0,248.2 40.0,243.2 50.0,237.6 60.0,231.9 70.0,226.5 80.0,221.6 90.0,217.5 100.0,214.5 110.0,212.6 120.0,211.8 130.0,212.0 140.0,213.0 150.0,214.6 160.0,216.4 170.0,218.0 180.0,219.3 190.0,219.9 200.0,219.5 210.0,218.2 220.0,215.7 230.0,212.4 240.0,208.2 250.0,203.4 260.0,198.5 270.0,193.7 280.0,189.3 290.0,185.8 300.0,183.5 310.0,182.4 320.0,182.7 330.0,184.5 340.0,187.6 350.0,191.8 360.0,196.8 370.0,202.4 380.0,208.1 390.0,213.5 400.0,218.4 410.0,222.5 420.0,225.5 430.0,227.4 440.0,228.2 450.0,228.0 460.0,227.0 470.0,225.4 480.0,223.6 490.0,222.0 500.0,220.7 510.0,220.1 520.0,220.5 530.0,221.8 540.0,224.3 550.0,227.6 560.0,231.8 570.0,236.6 580.0,241.5 590.0,246.3 600.0,250.7 610.0,254.2 620.0,256.5 630.0,257.6 640.0,257.3" />
<path class="de-bold" d="M 0.0,293.3 10.0,289.7 20.0,285.6 30.0,281.2 40.0,276.7 50.0,272.0 60.0,267.3 70.0,262.8 80.0,258.5 90.0,254.4 100.0,250.8 110.0,247.5 120.0,244.8 130.0,242.5 140.0,240.8 150.0,239.6 160.0,238.9 170.0,238.7 180.0,238.9 190.0,239.4 200.0,240.3 210.0,241.3 220.0,242.5 230.0,243.8 240.0,245.2 250.0,246.4 260.0,247.6 270.0,248.7 280.0,249.6 290.0,250.3 300.0,250.9 310.0,251.3 320.0,251.6 330.0,251.8 340.0,251.9 350.0,252.1 360.0,252.4 370.0,252.8 380.0,253.4 390.0,254.2 400.0,255.3 410.0,256.8 420.0,258.6 430.0,260.7 440.0,263.3 450.0,266.1 460.0,269.3 470.0,272.6 480.0,276.2 490.0,279.9 500.0,283.6 510.0,287.2 520.0,290.7 530.0,293.9 540.0,296.8 550.0,299.2 560.0,301.1 570.0,302.4 580.0,303.1 590.0,303.1 600.0,302.4 610.0,301.1 620.0,299.1 630.0,296.5 640.0,293.3" />
<text class="dtxt-e" x="280.0" y="246.6">1250m</text>
<path class="dg" d="M 0.0,325.7 10.0,324.8 20.0,323.3 30.0,321.0 40.0,318.1 50.0,314.5 60.0,310.4 70.0,306.1 80.0,301.7 90.0,297.4 100.0,293.5 110.0,290.2 120.0,287.5 130.0,285.7 140.0,284.7 150.0,284.5 160.0,285.1 170.0,286.3 180.0,288.0 190.0,289.9 200.0,291.9 210.0,293.8 220.0,295.4 230.0,296.5 240.0,297.2 250.0,297.5 260.0,297.2 270.0,296.7 280.0,295.9 290.0,295.1 300.0,294.5 310.0,294.1 320.0,294.3 330.0,295.2 340.0,296.7 350.0,299.0 360.0,301.9 370.0,305.5 380.0,309.6 390.0,313.9 400.0,318.3 410.0,322.6 420.0,326.5 430.0,329.8 440.0,332.5 450.0,334.3 460.0,335.3 470.0,335.5 480.0,334.9 490.0,333.7 500.0,332.0 510.0,330.1 520.0,328.1 530.0,326.2 540.0,324.6 550.0,323.5 560.0,322.8 570.0,322.5 580.0,322.8 590.0,323.3 600.0,324.1 610.0,324.9 620.0,325.5 630.0,325.9 640.0,325.7" />
<path class="dg" d="M 0.0,369.0 10.0,366.5 20.0,363.5 30.0,360.0 40.0,356.2 50.0,352.1 60.0,347.8 70.0,343.4 80.0,339.0 90.0,334.7 100.0,330.7 110.0,327.0 120.0,323.8 130.0,321.1 140.0,319.1 150.0,317.7 160.0,317.1 170.0,317.1 180.0,318.0 190.0,319.5 200.0,321.7 210.0,324.5 220.0,327.8 230.0,331.6 240.0,335.7 250.0,340.0 260.0,344.4 270.0,348.7 280.0,353.0 290.0,357.0 300.0,360.7 310.0,364.1 320.0,366.9 330.0,369.3 340.0,371.2 350.0,372.5 360.0,373.4 370.0,373.8 380.0,373.8 390.0,373.5 400.0,372.8 410.0,372.0 420.0,371.1 430.0,370.1 440.0,369.2 450.0,368.3 460.0,367.7 470.0,367.2 480.0,367.0 490.0,367.1 500.0,367.4 510.0,367.9 520.0,368.7 530.0,369.6 540.0,370.5 550.0,371.5 560.0,372.5 570.0,373.3 580.0,373.9 590.0,374.1 600.0,374.0 610.0,373.5 620.0,372.5 630.0,371.0 640.0,369.0" />
<path class="dg-bold" d="M 0.0,393.9 10.0,388.6 20.0,383.3 30.0,378.4 40.0,374.2 50.0,370.7 60.0,368.2 70.0,366.7 80.0,366.4 90.0,367.1 100.0,368.6 110.0,370.8 120.0,373.5 130.0,376.4 140.0,379.3 150.0,382.0 160.0,384.1 170.0,385.8 180.0,386.7 190.0,387.1 200.0,387.0 210.0,386.4 220.0,385.7 230.0,385.0 240.0,384.5 250.0,384.6 260.0,385.2 270.0,386.7 280.0,389.1 290.0,392.3 300.0,396.3 310.0,401.0 320.0,406.1 330.0,411.4 340.0,416.7 350.0,421.6 360.0,425.8 370.0,429.3 380.0,431.8 390.0,433.3 400.0,433.6 410.0,432.9 420.0,431.4 430.0,429.2 440.0,426.5 450.0,423.6 460.0,420.7 470.0,418.0 480.0,415.9 490.0,414.2 500.0,413.3 510.0,412.9 520.0,413.0 530.0,413.6 540.0,414.3 550.0,415.0 560.0,415.5 570.0,415.4 580.0,414.8 590.0,413.3 600.0,410.9 610.0,407.7 620.0,403.7 630.0,399.0 640.0,393.9" />
<text class="dtxt" x="280.0" y="386.1">1100m</text>
<path class="de" d="M 0.0,434.1 10.0,434.8 20.0,435.5 30.0,436.1 40.0,436.4 50.0,436.6 60.0,436.5 70.0,436.1 80.0,435.5 90.0,434.6 100.0,433.5 110.0,432.3 120.0,431.0 130.0,429.6 140.0,428.3 150.0,427.2 160.0,426.2 170.0,425.5 180.0,425.2 190.0,425.3 200.0,425.8 210.0,426.9 220.0,428.4 230.0,430.4 240.0,433.0 250.0,435.9 260.0,439.3 270.0,443.0 280.0,446.9 290.0,451.0 300.0,455.1 310.0,459.1 320.0,463.0 330.0,466.6 340.0,469.8 350.0,472.6 360.0,474.8 370.0,476.4 380.0,477.4 390.0,477.8 400.0,477.5 410.0,476.5 420.0,474.9 430.0,472.8 440.0,470.2 450.0,467.2 460.0,463.9 470.0,460.3 480.0,456.7 490.0,453.0 500.0,449.5 510.0,446.1 520.0,442.9 530.0,440.1 540.0,437.7 550.0,435.7 560.0,434.1 570.0,433.0 580.0,432.2 590.0,431.9 600.0,431.9 610.0,432.2 620.0,432.7 630.0,433.4 640.0,434.1" />
<path class="dg" d="M 0.0,476.8 10.0,475.0 20.0,472.7 30.0,470.1 40.0,467.5 50.0,464.9 60.0,462.7 70.0,461.0 80.0,460.0 90.0,459.9 100.0,460.8 110.0,462.6 120.0,465.4 130.0,468.9 140.0,473.1 150.0,477.7 160.0,482.4 170.0,487.1 180.0,491.4 190.0,495.3 200.0,498.4 210.0,500.8 220.0,502.4 230.0,503.3 240.0,503.5 250.0,503.2 260.0,502.6 270.0,502.0 280.0,501.4 290.0,501.1 300.0,501.3 310.0,502.0 320.0,503.2 330.0,505.0 340.0,507.3 350.0,509.9 360.0,512.5 370.0,515.1 380.0,517.3 390.0,519.0 400.0,520.0 410.0,520.1 420.0,519.2 430.0,517.4 440.0,514.6 450.0,511.1 460.0,506.9 470.0,502.3 480.0,497.6 490.0,492.9 500.0,488.6 510.0,484.7 520.0,481.6 530.0,479.2 540.0,477.6 550.0,476.7 560.0,476.5 570.0,476.8 580.0,477.4 590.0,478.0 600.0,478.6 610.0,478.9 620.0,478.7 630.0,478.0 640.0,476.8" />
<path class="de-bold" d="M 0.0,516.2 10.0,513.8 20.0,511.5 30.0,509.4 40.0,507.5 50.0,506.0 60.0,504.9 70.0,504.3 80.0,504.4 90.0,505.1 100.0,506.4 110.0,508.5 120.0,511.2 130.0,514.5 140.0,518.4 150.0,522.7 160.0,527.5 170.0,532.5 180.0,537.7 190.0,542.9 200.0,548.0 210.0,552.9 220.0,557.5 230.0,561.6 240.0,565.2 250.0,568.1 260.0,570.3 270.0,571.8 280.0,572.5 290.0,572.5 300.0,571.7 310.0,570.3 320.0,568.2 330.0,565.6 340.0,562.6 350.0,559.3 360.0,555.8 370.0,552.1 380.0,548.5 390.0,544.9 400.0,541.6 410.0,538.6 420.0,535.9 430.0,533.6 440.0,531.7 450.0,530.2 460.0,529.1 470.0,528.5 480.0,528.1 490.0,528.0 500.0,528.2 510.0,528.4 520.0,528.7 530.0,529.0 540.0,529.1 550.0,529.1 560.0,528.8 570.0,528.3 580.0,527.4 590.0,526.2 600.0,524.7 610.0,522.9 620.0,520.8 630.0,518.6 640.0,516.2" />
<text class="dtxt-e" x="280.0" y="569.5">950m</text>
<path class="dg" d="M 0.0,566.6 10.0,569.0 20.0,571.0 30.0,572.5 40.0,573.4 50.0,573.8 60.0,573.8 70.0,573.4 80.0,572.9 90.0,572.4 100.0,572.1 110.0,572.2 120.0,572.8 130.0,574.0 140.0,575.9 150.0,578.4 160.0,581.4 170.0,585.0 180.0,588.8 190.0,592.7 200.0,596.5 210.0,599.9 220.0,602.8 230.0,605.0 240.0,606.4 250.0,606.9 260.0,606.6 270.0,605.5 280.0,603.7 290.0,601.4 300.0,598.7 310.0,596.0 320.0,593.4 330.0,591.0 340.0,589.0 350.0,587.5 360.0,586.6 370.0,586.2 380.0,586.2 390.0,586.6 400.0,587.1 410.0,587.6 420.0,587.9 430.0,587.8 440.0,587.2 450.0,586.0 460.0,584.1 470.0,581.6 480.0,578.6 490.0,575.0 500.0,571.2 510.0,567.3 520.0,563.5 530.0,560.1 540.0,557.2 550.0,555.0 560.0,553.6 570.0,553.1 580.0,553.4 590.0,554.5 600.0,556.3 610.0,558.6 620.0,561.3 630.0,564.0 640.0,566.6" />
<path class="dg" d="M 0.0,622.2 10.0,623.6 20.0,624.8 30.0,625.7 40.0,626.3 50.0,626.7 60.0,626.9 70.0,626.9 80.0,626.7 90.0,626.5 100.0,626.3 110.0,626.2 120.0,626.2 130.0,626.3 140.0,626.6 150.0,627.1 160.0,627.9 170.0,628.9 180.0,630.2 190.0,631.8 200.0,633.5 210.0,635.3 220.0,637.3 230.0,639.3 240.0,641.3 250.0,643.2 260.0,644.8 270.0,646.3 280.0,647.4 290.0,648.1 300.0,648.4 310.0,648.2 320.0,647.6 330.0,646.4 340.0,644.7 350.0,642.6 360.0,640.0 370.0,637.1 380.0,633.8 390.0,630.3 400.0,626.7 410.0,622.9 420.0,619.2 430.0,615.7 440.0,612.3 450.0,609.2 460.0,606.5 470.0,604.2 480.0,602.4 490.0,601.1 500.0,600.3 510.0,600.0 520.0,600.2 530.0,600.9 540.0,602.0 550.0,603.5 560.0,605.3 570.0,607.3 580.0,609.6 590.0,611.8 600.0,614.2 610.0,616.4 620.0,618.5 630.0,620.4 640.0,622.2" />
<ellipse class="dg" cx="190" cy="240" rx="28.6" ry="16.5" transform="rotate(-15, 190, 240)" />
<ellipse class="dg-bold" cx="190" cy="240" rx="57.2" ry="33.0" transform="rotate(-15, 190, 240)" />
<ellipse class="dg" cx="190" cy="240" rx="91.0" ry="52.5" transform="rotate(-15, 190, 240)" />
<ellipse class="dg-bold" cx="190" cy="240" rx="130.0" ry="75.0" transform="rotate(-15, 190, 240)" />
<ellipse class="dg" cx="190" cy="240" rx="175.5" ry="101.2" transform="rotate(-15, 190, 240)" />
<text class="dtxt" x="175" y="243">&#9650; 1482m</text>
<ellipse class="de" cx="490" cy="460" rx="21.6" ry="14.4" transform="rotate(25, 490, 460)" />
<ellipse class="de-bold" cx="490" cy="460" rx="45.6" ry="30.4" transform="rotate(25, 490, 460)" />
<ellipse class="de" cx="490" cy="460" rx="74.4" ry="49.6" transform="rotate(25, 490, 460)" />
<ellipse class="de-bold" cx="490" cy="460" rx="110.4" ry="73.6" transform="rotate(25, 490, 460)" />
<ellipse class="de" cx="490" cy="460" rx="150.0" ry="100.0" transform="rotate(25, 490, 460)" />
<text class="dtxt-e" x="475" y="463">&#9650; 1160m</text>
<ellipse class="dg" cx="360" cy="80" rx="21.0" ry="9.8" transform="rotate(10, 360, 80)" />
<ellipse class="dg" cx="360" cy="80" rx="44.8" ry="20.8" transform="rotate(10, 360, 80)" />
<ellipse class="dg" cx="360" cy="80" rx="75.6" ry="35.1" transform="rotate(10, 360, 80)" />
</svg>